
<svg width="64" height="64" xmlns="http://www.w3.org/2000/svg" xmlns:svg="http://www.w3.org/2000/svg" version="1.1">
 <g class="layer">
  <title>Waving Hand</title>
  <path d="m45.44,63.78q-4.27,0 -8.57,-2.14t-8.95,-6.56l-18.14,-17.3q-1.34,-1.31 -1.34,-3.27q0,-2.09 1.42,-3.54t3.6,-1.45l-2.24,-2.24q-1.4,-1.4 -1.4,-3.4q0,-2.03 1.48,-3.38t3.48,-1.36l-1.9,-1.93q-1.4,-1.47 -1.4,-3.37q0,-1.96 1.4,-3.37t3.34,-1.4q1.96,0 3.37,1.4l2.06,2.06q0,-2.15 1.39,-3.55t3.35,-1.4q0.9,0 1.79,0.36t1.61,1.08l17.27,17.24q-0.62,-2.87 -0.86,-4.43t-0.23,-2.37q0,-2.15 0.89,-4.08t2.42,-3.15t3.43,-1.22q1.43,0 2.46,0.95t1.03,2.38q0,0.94 -0.23,1.85t-0.23,2.32q0,2.74 1.14,6.2t3.41,8.48l0.94,2.06q1,2.18 1.57,4.22t0.58,3.82q0,4.3 -1.43,8.03t-3.93,6.53t-5.72,4.36t-6.81,1.56zm-36.94,-10.26q-2.84,-0.53 -4.99,-2.57t-2.84,-4.91l1.18,-0.31q0.62,2.56 2.49,4.33t4.33,2.21l-0.19,1.25zm3.06,-5.67q-2,-0.28 -3.52,-1.67t-2.06,-3.29l1.18,-0.31q0.44,1.56 1.7,2.67t2.88,1.36l-0.19,1.25zm33.89,14.68q3.34,0 6.33,-1.47t5.32,-4.1t3.66,-6.11t1.34,-7.5q0,-1.65 -0.55,-3.59t-1.48,-3.99l-0.94,-2.06q-2.31,-5.11 -3.48,-8.73t-1.17,-6.52q0,-1.34 0.22,-2.38t0.22,-1.67q0,-0.9 -0.62,-1.53t-1.65,-0.62q-1.56,0 -2.79,1.04t-1.95,2.68t-0.72,3.41q0,0.65 0.06,1.23t0.12,0.92l1,5.86q-3.21,4.52 -3.21,9.88q0,2.65 0.92,4.97t2.63,4.07l-0.97,0.81q-3.74,-3.74 -3.74,-9.73q0,-5.11 2.68,-9.76l-17.8,-17.8q-1.06,-1.06 -2.49,-1.06q-1.53,0 -2.53,1.08t-1,2.45q0,1.47 1.06,2.49l13.56,13.5l-0.9,0.87l-17.93,-17.86q-1.03,-1.03 -2.46,-1.03q-1.5,0 -2.51,1.08t-1.01,2.45q0,1.47 1.06,2.49l17.89,17.83l-0.87,0.9l-13.69,-13.66q-0.5,-0.53 -1.15,-0.78t-1.31,-0.25q-1.53,0 -2.54,1.06t-1.01,2.43q0,1.47 1.06,2.49l13.69,13.66l-0.87,0.87l-9.17,-9.1q-1.03,-1.03 -2.46,-1.03q-1.53,0 -2.57,1.09t-1.04,2.65q0,1.43 1,2.4l18.11,17.3q4.43,4.24 8.51,6.28t8.14,2.04zm-5.08,-51.88q-0.65,-1.53 -2.06,-2.45t-3.06,-0.92l0,-1.25q2.03,0 3.74,1.14t2.49,2.98l-1.12,0.5zm4.49,-4.05q-1.06,-2.37 -3.18,-3.77t-4.68,-1.4l0,-1.25q2.9,0 5.36,1.62t3.62,4.3l-1.12,0.5z" fill="#fafafa"/>
 </g>
</svg>