<svg width="2048" height="2048" xmlns="http://www.w3.org/2000/svg" xmlns:svg="http://www.w3.org/2000/svg" version="1.1">
  <g class="layer">
    <title>Waving Hand</title>
    <path d="m1436,2044q-137,0 -275,-68.5t-287,-210.5l-582,-555q-43,-42 -43,-105q0,-67 45.5,-113.5t115.5,-46.5l-72,-72q-45,-45 -45,-109q0,-65 47.5,-108.5t111.5,-43.5l-61,-62q-45,-47 -45,-108q0,-63 45,-108t107,-45q63,0 108,45l66,66q0,-69 44.5,-114t107.5,-45q29,0 57.5,11.5t51.5,34.5l554,553q-20,-92 -27.5,-142t-7.5,-76q0,-69 28.5,-131t77.5,-101t110,-39q46,0 79,30.5t33,76.5q0,30 -7.5,59.5t-7.5,74.5q0,88 36.5,199t109.5,272l30,66q32,70 50.5,135.5t18.5,122.5q0,138 -46,257.5t-126,209.5t-183.5,140t-218.5,50zm-1185,-329q-91,-17 -160,-82.5t-91,-157.5l38,-10q20,82 80,139t139,71l-6,40zm98,-182q-64,-9 -113,-53.5t-66,-105.5l38,-10q14,50 54.5,85.5t92.5,43.5l-6,40zm1087,471q107,0 203,-47t170.5,-131.5t117.5,-196t43,-240.5q0,-53 -17.5,-115t-47.5,-128l-30,-66q-74,-164 -111.5,-280t-37.5,-209q0,-43 7,-76.5t7,-53.5q0,-29 -20,-49t-53,-20q-50,0 -89.5,33.5t-62.5,86t-23,109.5q0,21 2,39.5t4,29.5l32,188q-103,145 -103,317q0,85 29.5,159.5t84.5,130.5l-31,26q-120,-120 -120,-312q0,-164 86,-313l-571,-571q-34,-34 -80,-34q-49,0 -81,34.5t-32,78.5q0,47 34,80l435,433l-29,28l-575,-573q-33,-33 -79,-33q-48,0 -80.5,34.5t-32.5,78.5q0,47 34,80l574,572l-28,29l-439,-438q-16,-17 -37,-25t-42,-8q-49,0 -81.5,34t-32.5,78q0,47 34,80l439,438l-28,28l-294,-292q-33,-33 -79,-33q-49,0 -82.5,35t-33.5,85q0,46 32,77l581,555q142,136 273,201.5t261,65.5zm-163,-1664q-21,-49 -66,-78.5t-98,-29.5l0,-40q65,0 120,36.5t80,95.5l-36,16zm144,-130q-34,-76 -102,-121t-150,-45l0,-40q93,0 172,52t116,138l-36,16z" fill="#fafafa"/>
  </g>
</svg>